<svg data-v-fde0c5aa="" xmlns="http://www.w3.org/2000/svg" viewBox="0 0 300 300" class="iconLeft"><!----><defs data-v-fde0c5aa=""><!----></defs><rect data-v-fde0c5aa="" fill="#2B282C" x="0" y="0" width="300px" height="300px" class="logo-background-square"></rect><defs data-v-fde0c5aa=""><!----></defs><g data-v-fde0c5aa="" id="b680b7a0-24c5-432e-b9f1-3693608b6676" fill="#ffffff" transform="matrix(5.324759103695743,0,0,5.324759103695743,147.43459770212928,91.29453291298884)"><path d="M2.04 16.24L2.04 16.24L2.04 16.24Q1.37 16.04 1.11 15.85L1.11 15.85L1.11 15.85Q0.85 15.65 0.85 15.36L0.85 15.36L0.85 15.36Q0.85 15.13 0.98 14.73L0.98 14.73L0.98 14.73Q1.11 14.32 1.35 13.77L1.35 13.77L1.35 13.77Q1.60 13.22 1.94 12.54L1.94 12.54L1.94 12.54Q2.28 11.87 2.72 11.10L2.72 11.10L2.72 11.10Q2.35 11.09 2.06 11.08L2.06 11.08L2.06 11.08Q1.78 11.07 1.60 11.07L1.60 11.07L1.60 11.07Q1.68 10.86 2.07 10.71L2.07 10.71L2.07 10.71Q2.46 10.56 3.11 10.44L3.11 10.44L3.11 10.44Q3.65 9.53 4.28 8.71L4.28 8.71L4.28 8.71Q4.90 7.88 5.53 7.19L5.53 7.19L5.53 7.19Q6.16 6.50 6.79 5.97L6.79 5.97L6.79 5.97Q7.42 5.45 7.99 5.14L7.99 5.14L7.99 5.14Q8.01 5.04 8.02 4.97L8.02 4.97L8.02 4.97Q8.02 4.90 8.02 4.87L8.02 4.87L8.02 4.87Q8.22 4.87 8.55 4.97L8.55 4.97L8.55 4.97Q8.88 5.07 9.19 5.21L9.19 5.21L9.19 5.21Q9.51 5.35 9.75 5.49L9.75 5.49L9.75 5.49Q10.00 5.64 10.02 5.74L10.02 5.74L10.02 5.74Q9.56 6.55 9.11 8.17L9.11 8.17L9.11 8.17Q8.67 9.79 8.37 12.04L8.37 12.04L8.37 12.04Q8.30 12.60 8.25 13.31L8.25 13.31L8.25 13.31Q8.20 14.03 8.20 14.91L8.20 14.91L8.20 14.91Q8.20 15.22 8.20 15.54L8.20 15.54L8.20 15.54Q8.20 15.86 8.23 16.21L8.23 16.21L8.23 16.21Q8.20 16.23 8.18 16.23L8.18 16.23L8.18 16.23Q8.15 16.23 8.06 16.23L8.06 16.23L8.06 16.23Q7.87 16.23 7.61 16.16L7.61 16.16L7.61 16.16Q7.35 16.10 7.11 16.01L7.11 16.01L7.11 16.01Q6.86 15.92 6.69 15.81L6.69 15.81L6.69 15.81Q6.51 15.69 6.47 15.61L6.47 15.61L6.47 15.61Q6.45 15.43 6.45 15.25L6.45 15.25L6.45 15.25Q6.45 15.08 6.45 14.88L6.45 14.88L6.45 14.88Q6.45 14.01 6.52 13.12L6.52 13.12L6.52 13.12Q6.58 12.22 6.73 11.27L6.73 11.27L6.73 11.27Q6.54 11.26 6.22 11.23L6.22 11.23L6.22 11.23Q5.89 11.21 5.50 11.20L5.50 11.20L5.50 11.20Q5.10 11.19 4.64 11.16L4.64 11.16L4.64 11.16Q4.19 11.14 3.75 11.13L3.75 11.13L3.75 11.13Q3.42 11.76 3.12 12.38L3.12 12.38L3.12 12.38Q2.83 13.01 2.62 13.64L2.62 13.64L2.62 13.64Q2.38 14.31 2.23 14.98L2.23 14.98L2.23 14.98Q2.09 15.65 2.04 16.24ZM7.45 7.83L7.45 7.83L7.45 7.83Q7.50 7.63 7.58 7.29L7.58 7.29L7.58 7.29Q7.66 6.94 7.73 6.57L7.73 6.57L7.73 6.57Q7.38 6.69 6.95 7.03L6.95 7.03L6.95 7.03Q6.52 7.36 6.07 7.86L6.07 7.86L6.07 7.86Q5.61 8.36 5.15 8.98L5.15 8.98L5.15 8.98Q4.68 9.60 4.24 10.30L4.24 10.30L4.24 10.30Q5.42 10.21 6.92 10.18L6.92 10.18L6.92 10.18Q7.03 9.59 7.16 9.01L7.16 9.01L7.16 9.01Q7.29 8.43 7.45 7.83ZM10.74 15.71L10.74 15.71L10.74 15.71Q10.51 15.68 10.27 15.52L10.27 15.52L10.27 15.52Q10.02 15.36 9.95 15.16L9.95 15.16L9.95 15.16Q9.95 14.99 10.00 14.73L10.00 14.73L10.00 14.73Q10.05 14.46 10.12 14.19L10.12 14.19L10.12 14.19Q10.19 13.92 10.26 13.67L10.26 13.67L10.26 13.67Q10.33 13.43 10.36 13.30L10.36 13.30L10.36 13.30Q10.53 13.30 10.79 13.38L10.79 13.38L10.79 13.38Q11.05 13.47 11.32 13.62L11.32 13.62L11.32 13.62Q11.59 13.76 11.84 13.95L11.84 13.95L11.84 13.95Q12.08 14.14 12.21 14.34L12.21 14.34L12.21 14.34Q12.08 14.62 11.89 14.87L11.89 14.87L11.89 14.87Q11.69 15.12 11.47 15.31L11.47 15.31L11.47 15.31Q11.26 15.50 11.06 15.60L11.06 15.60L11.06 15.60Q10.86 15.71 10.74 15.71ZM19.03 4.83L19.03 4.83L19.03 4.83Q19.56 4.83 20.13 5.03L20.13 5.03L20.13 5.03Q20.71 5.22 21.14 5.53L21.14 5.53L21.14 5.53Q21 6.24 20.88 6.82L20.88 6.82L20.88 6.82Q20.76 7.39 20.66 7.86L20.66 7.86L20.66 7.86Q20.57 8.33 20.48 8.71L20.48 8.71L20.48 8.71Q20.38 9.10 20.30 9.44L20.30 9.44L20.30 9.44Q19.96 10.70 19.61 11.71L19.61 11.71L19.61 11.71Q19.25 12.73 18.85 13.54L18.85 13.54L18.85 13.54Q18.45 14.35 18.01 14.98L18.01 14.98L18.01 14.98Q17.57 15.61 17.07 16.09L17.07 16.09L17.07 16.09Q16.58 16.55 16.09 16.84L16.09 16.84L16.09 16.84Q15.60 17.14 15.18 17.22L15.18 17.22L15.18 17.22Q14.62 17.22 14.14 17.09L14.14 17.09L14.14 17.09Q13.66 16.97 13.32 16.75L13.32 16.75L13.32 16.75Q12.98 16.53 12.79 16.23L12.79 16.23L12.79 16.23Q12.60 15.93 12.60 15.57L12.60 15.57L12.60 15.57Q12.60 15.18 12.80 14.58L12.80 14.58L12.80 14.58Q12.99 13.99 13.40 13.17L13.40 13.17L13.40 13.17Q13.57 13.19 13.79 13.26L13.79 13.26L13.79 13.26Q14.01 13.33 14.24 13.43L14.24 13.43L14.24 13.43Q14.46 13.52 14.64 13.64L14.64 13.64L14.64 13.64Q14.83 13.76 14.91 13.87L14.91 13.87L14.91 13.87Q14.46 14.34 14.18 14.89L14.18 14.89L14.18 14.89Q13.90 15.44 13.90 15.85L13.90 15.85L13.90 15.85Q13.90 16.09 13.99 16.27L13.99 16.27L13.99 16.27Q14.08 16.46 14.31 16.62L14.31 16.62L14.31 16.62Q15.16 16.30 15.97 15.42L15.97 15.42L15.97 15.42Q16.79 14.55 17.42 13.24L17.42 13.24L17.42 13.24Q17.79 12.47 18.10 11.48L18.10 11.48L18.10 11.48Q18.41 10.49 18.63 9.48L18.63 9.48L18.63 9.48Q18.84 8.48 18.96 7.57L18.96 7.57L18.96 7.57Q19.08 6.65 19.08 6.02L19.08 6.02L19.08 6.02Q19.08 5.92 19.07 5.75L19.07 5.75L19.07 5.75Q19.07 5.57 19.06 5.38L19.06 5.38L19.06 5.38Q19.05 5.19 19.04 5.04L19.04 5.04L19.04 5.04Q19.03 4.89 19.03 4.83Z"></path></g><defs data-v-fde0c5aa=""><!----></defs><g data-v-fde0c5aa="" id="249384e8-8f75-4d17-9b52-e86890b0c26a" stroke="none" fill="#746657" transform="matrix(3.092520095850713,0,0,3.092520095850713,40,100.5196784663886)"><path d="M9.663 12.988L12.675 16l-6.338 6.337 3.326 3.326L16 19.325l3.012 3.012-6.337 6.338L16 32l6.337-6.337 3.326-3.326L32 16l-3.325-3.325-6.338 6.337L19.325 16l6.338-6.337-3.326-3.326L16 12.675l-3.012-3.012 6.337-6.338L16 0 9.663 6.337 6.337 9.663 0 16l3.325 3.325z"></path></g><!----></svg>